<svg width="26" height="25" viewBox="0 0 26 25" fill="none" xmlns="http://www.w3.org/2000/svg">
<path d="M1.36842 24.6316V18.8158L19.3974 0.821053C19.6711 0.547368 19.9789 0.342105 20.3211 0.205263C20.6632 0.0684211 21.0053 0 21.3474 0C21.7123 0 22.0601 0.0684211 22.3908 0.205263C22.7215 0.342105 23.0123 0.547368 23.2632 0.821053L25.1789 2.73684C25.4526 2.98772 25.6579 3.27851 25.7947 3.60921C25.9316 3.93991 26 4.28772 26 4.65263C26 4.99474 25.9316 5.33684 25.7947 5.67895C25.6579 6.02105 25.4526 6.32895 25.1789 6.60263L7.18421 24.6316H1.36842ZM4.10526 21.8947H6.02105L19.4658 8.48421L18.5079 7.49211L17.5158 6.53421L4.10526 19.9789V21.8947ZM18.5079 7.49211L17.5158 6.53421L19.4658 8.48421L18.5079 7.49211ZM15.0526 24.6316C16.7404 24.6316 18.3026 24.2096 19.7395 23.3658C21.1763 22.5219 21.8947 21.3474 21.8947 19.8421C21.8947 19.0211 21.6781 18.314 21.2447 17.7211C20.8114 17.1281 20.2298 16.6149 19.5 16.1816L17.4816 18.2C18.0061 18.4281 18.4167 18.6789 18.7132 18.9526C19.0096 19.2263 19.1579 19.5228 19.1579 19.8421C19.1579 20.3667 18.7417 20.8399 17.9092 21.2618C17.0768 21.6838 16.1246 21.8947 15.0526 21.8947C14.6649 21.8947 14.3399 22.0259 14.0776 22.2882C13.8154 22.5504 13.6842 22.8754 13.6842 23.2632C13.6842 23.6509 13.8154 23.9759 14.0776 24.2382C14.3399 24.5004 14.6649 24.6316 15.0526 24.6316ZM2.15526 14.1632L4.20789 12.1105C3.75175 11.9281 3.39254 11.7399 3.13026 11.5461C2.86798 11.3522 2.73684 11.1526 2.73684 10.9474C2.73684 10.6737 2.94211 10.4 3.35263 10.1263C3.76316 9.85263 4.62982 9.4307 5.95263 8.86053C7.95965 7.99386 9.29386 7.20702 9.95526 6.5C10.6167 5.79298 10.9474 4.99474 10.9474 4.10526C10.9474 2.85088 10.4456 1.85307 9.44211 1.11184C8.4386 0.370614 7.11579 0 5.47368 0C4.44737 0 3.52939 0.182456 2.71974 0.547368C1.91009 0.912281 1.2886 1.35702 0.855263 1.88158C0.604386 2.17807 0.501754 2.50877 0.547368 2.87368C0.592982 3.2386 0.764035 3.53509 1.06053 3.76316C1.35702 4.01404 1.68772 4.11667 2.05263 4.07105C2.41754 4.02544 2.72544 3.87719 2.97632 3.62632C3.29561 3.30702 3.64912 3.07895 4.03684 2.94211C4.42456 2.80526 4.90351 2.73684 5.47368 2.73684C6.40877 2.73684 7.09868 2.87368 7.54342 3.14737C7.98816 3.42105 8.21053 3.74035 8.21053 4.10526C8.21053 4.42456 8.01096 4.71535 7.61184 4.97763C7.21272 5.23991 6.29474 5.70175 4.85789 6.36316C3.03333 7.1614 1.76754 7.88553 1.06053 8.53553C0.353509 9.18553 0 9.98947 0 10.9474C0 11.6772 0.19386 12.2987 0.581579 12.8118C0.969298 13.325 1.49386 13.7754 2.15526 14.1632Z" fill="#E8EAED"/>
</svg>
