<svg width="27" height="23" viewBox="0 0 27 23" fill="none" xmlns="http://www.w3.org/2000/svg">
<path d="M20.2135 19.5364H26.4V22.1412H17.6086L20.2135 19.5364ZM3.93318 22.1412L1.16553 19.3736C0.666267 18.8743 0.411209 18.2557 0.400356 17.5176C0.389502 16.7796 0.633707 16.1501 1.13297 15.6291L15.4596 0.781455C15.9589 0.260485 16.5721 0 17.2993 0C18.0265 0 18.6397 0.249631 19.139 0.748894L25.6186 7.22846C26.1178 7.72772 26.3675 8.34637 26.3675 9.08441C26.3675 9.82245 26.1178 10.4411 25.6186 10.9404L14.6782 22.1412H3.93318ZM13.5711 19.5364L23.7952 9.05185L17.3482 2.60485L2.95636 17.4525L5.04024 19.5364H13.5711Z" fill="#E8EAED"/>
</svg>
