<svg width="23" height="24" viewBox="0 0 23 24" fill="none" xmlns="http://www.w3.org/2000/svg">
<path d="M10.4545 24C9.90909 24 9.4 23.8773 8.92728 23.6318C8.45455 23.3864 8.06364 23.0364 7.75455 22.5818L0.800003 12.4091L1.45455 11.7818C1.8 11.4364 2.20909 11.2364 2.68182 11.1818C3.15455 11.1273 3.58182 11.2364 3.96364 11.5091L7.12728 13.7182V3.27273C7.12728 2.96364 7.23182 2.70455 7.44091 2.49545C7.65 2.28636 7.90909 2.18182 8.21818 2.18182C8.52728 2.18182 8.78637 2.28636 8.99546 2.49545C9.20455 2.70455 9.30909 2.96364 9.30909 3.27273V17.9182L5.27273 15.0818L9.55455 21.3273C9.64546 21.4727 9.77273 21.5909 9.93637 21.6818C10.1 21.7727 10.2727 21.8182 10.4545 21.8182H18.0364C18.6364 21.8182 19.15 21.6045 19.5773 21.1773C20.0045 20.75 20.2182 20.2364 20.2182 19.6364V4.36364C20.2182 4.05455 20.3227 3.79545 20.5318 3.58636C20.7409 3.37727 21 3.27273 21.3091 3.27273C21.6182 3.27273 21.8773 3.37727 22.0864 3.58636C22.2955 3.79545 22.4 4.05455 22.4 4.36364V19.6364C22.4 20.8364 21.9727 21.8636 21.1182 22.7182C20.2636 23.5727 19.2364 24 18.0364 24H10.4545ZM11.4909 12V1.09091C11.4909 0.781818 11.5955 0.522727 11.8045 0.313636C12.0136 0.104545 12.2727 0 12.5818 0C12.8909 0 13.15 0.104545 13.3591 0.313636C13.5682 0.522727 13.6727 0.781818 13.6727 1.09091V12H11.4909ZM15.8545 12V2.18182C15.8545 1.87273 15.9591 1.61364 16.1682 1.40455C16.3773 1.19545 16.6364 1.09091 16.9455 1.09091C17.2545 1.09091 17.5136 1.19545 17.7227 1.40455C17.9318 1.61364 18.0364 1.87273 18.0364 2.18182V12H15.8545Z" fill="#E8EAED"/>
</svg>
